<svg class="marks" width="579" height="380" viewBox="0 0 579 380" version="1.1" xmlns="http://www.w3.org/2000/svg" xmlns:xlink="http://www.w3.org/1999/xlink"><rect width="579" height="380" style="fill: white;"></rect><g transform="translate(81,34)"><g class="mark-group role-frame root"><g transform="translate(0,0)"><path class="background" d="M0.5,0.5h400v300h-400Z" style="fill: none; stroke: #ddd;"></path><g><g class="mark-group role-axis"><g transform="translate(0.5,0.5)"><path class="background" d="M0,0h0v0h0Z" style="pointer-events: none; fill: none;"></path><g><g class="mark-rule role-axis-grid" style="pointer-events: none;"><line transform="translate(0,300)" x2="400" y2="0" style="fill: none; stroke: #ddd; stroke-width: 1; opacity: 1;"></line><line transform="translate(0,263)" x2="400" y2="0" style="fill: none; stroke: #ddd; stroke-width: 1; opacity: 1;"></line><line transform="translate(0,225)" x2="400" y2="0" style="fill: none; stroke: #ddd; stroke-width: 1; opacity: 1;"></line><line transform="translate(0,188)" x2="400" y2="0" style="fill: none; stroke: #ddd; stroke-width: 1; opacity: 1;"></line><line transform="translate(0,150)" x2="400" y2="0" style="fill: none; stroke: #ddd; stroke-width: 1; opacity: 1;"></line><line transform="translate(0,113)" x2="400" y2="0" style="fill: none; stroke: #ddd; stroke-width: 1; opacity: 1;"></line><line transform="translate(0,75)" x2="400" y2="0" style="fill: none; stroke: #ddd; stroke-width: 1; opacity: 1;"></line><line transform="translate(0,38)" x2="400" y2="0" style="fill: none; stroke: #ddd; stroke-width: 1; opacity: 1;"></line><line transform="translate(0,0)" x2="400" y2="0" style="fill: none; stroke: #ddd; stroke-width: 1; opacity: 1;"></line></g></g><path class="foreground" d="" style="pointer-events: none; display: none; fill: none;"></path></g></g><g class="mark-group role-axis"><g transform="translate(0.5,300.5)"><path class="background" d="M0,0h0v0h0Z" style="pointer-events: none; fill: none;"></path><g><g class="mark-rule role-axis-tick" style="pointer-events: none;"><line transform="translate(0,0)" x2="0" y2="5" style="fill: none; stroke: #888; stroke-width: 1; opacity: 1;"></line><line transform="translate(6,0)" x2="0" y2="5" style="fill: none; stroke: #888; stroke-width: 1; opacity: 1;"></line><line transform="translate(11,0)" x2="0" y2="5" style="fill: none; stroke: #888; stroke-width: 1; opacity: 1;"></line><line transform="translate(17,0)" x2="0" y2="5" style="fill: none; stroke: #888; stroke-width: 1; opacity: 1;"></line><line transform="translate(23,0)" x2="0" y2="5" style="fill: none; stroke: #888; stroke-width: 1; opacity: 1;"></line><line transform="translate(29,0)" x2="0" y2="5" style="fill: none; stroke: #888; stroke-width: 1; opacity: 1;"></line><line transform="translate(34,0)" x2="0" y2="5" style="fill: none; stroke: #888; stroke-width: 1; opacity: 1;"></line><line transform="translate(40,0)" x2="0" y2="5" style="fill: none; stroke: #888; stroke-width: 1; opacity: 1;"></line><line transform="translate(46,0)" x2="0" y2="5" style="fill: none; stroke: #888; stroke-width: 1; opacity: 1;"></line><line transform="translate(51,0)" x2="0" y2="5" style="fill: none; stroke: #888; stroke-width: 1; opacity: 1;"></line><line transform="translate(57,0)" x2="0" y2="5" style="fill: none; stroke: #888; stroke-width: 1; opacity: 1;"></line><line transform="translate(63,0)" x2="0" y2="5" style="fill: none; stroke: #888; stroke-width: 1; opacity: 1;"></line><line transform="translate(69,0)" x2="0" y2="5" style="fill: none; stroke: #888; stroke-width: 1; opacity: 1;"></line><line transform="translate(74,0)" x2="0" y2="5" style="fill: none; stroke: #888; stroke-width: 1; opacity: 1;"></line><line transform="translate(80,0)" x2="0" y2="5" style="fill: none; stroke: #888; stroke-width: 1; opacity: 1;"></line><line transform="translate(86,0)" x2="0" y2="5" style="fill: none; stroke: #888; stroke-width: 1; opacity: 1;"></line><line transform="translate(91,0)" x2="0" y2="5" style="fill: none; stroke: #888; stroke-width: 1; opacity: 1;"></line><line transform="translate(97,0)" x2="0" y2="5" style="fill: none; stroke: #888; stroke-width: 1; opacity: 1;"></line><line transform="translate(103,0)" x2="0" y2="5" style="fill: none; stroke: #888; stroke-width: 1; opacity: 1;"></line><line transform="translate(109,0)" x2="0" y2="5" style="fill: none; stroke: #888; stroke-width: 1; opacity: 1;"></line><line transform="translate(114,0)" x2="0" y2="5" style="fill: none; stroke: #888; stroke-width: 1; opacity: 1;"></line><line transform="translate(120,0)" x2="0" y2="5" style="fill: none; stroke: #888; stroke-width: 1; opacity: 1;"></line><line transform="translate(126,0)" x2="0" y2="5" style="fill: none; stroke: #888; stroke-width: 1; opacity: 1;"></line><line transform="translate(131,0)" x2="0" y2="5" style="fill: none; stroke: #888; stroke-width: 1; opacity: 1;"></line><line transform="translate(137,0)" x2="0" y2="5" style="fill: none; stroke: #888; stroke-width: 1; opacity: 1;"></line><line transform="translate(143,0)" x2="0" y2="5" style="fill: none; stroke: #888; stroke-width: 1; opacity: 1;"></line><line transform="translate(149,0)" x2="0" y2="5" style="fill: none; stroke: #888; stroke-width: 1; opacity: 1;"></line><line transform="translate(154,0)" x2="0" y2="5" style="fill: none; stroke: #888; stroke-width: 1; opacity: 1;"></line><line transform="translate(160,0)" x2="0" y2="5" style="fill: none; stroke: #888; stroke-width: 1; opacity: 1;"></line><line transform="translate(166,0)" x2="0" y2="5" style="fill: none; stroke: #888; stroke-width: 1; opacity: 1;"></line><line transform="translate(171,0)" x2="0" y2="5" style="fill: none; stroke: #888; stroke-width: 1; opacity: 1;"></line><line transform="translate(177,0)" x2="0" y2="5" style="fill: none; stroke: #888; stroke-width: 1; opacity: 1;"></line><line transform="translate(183,0)" x2="0" y2="5" style="fill: none; stroke: #888; stroke-width: 1; opacity: 1;"></line><line transform="translate(189,0)" x2="0" y2="5" style="fill: none; stroke: #888; stroke-width: 1; opacity: 1;"></line><line transform="translate(194,0)" x2="0" y2="5" style="fill: none; stroke: #888; stroke-width: 1; opacity: 1;"></line><line transform="translate(200,0)" x2="0" y2="5" style="fill: none; stroke: #888; stroke-width: 1; opacity: 1;"></line><line transform="translate(206,0)" x2="0" y2="5" style="fill: none; stroke: #888; stroke-width: 1; opacity: 1;"></line><line transform="translate(211,0)" x2="0" y2="5" style="fill: none; stroke: #888; stroke-width: 1; opacity: 1;"></line><line transform="translate(217,0)" x2="0" y2="5" style="fill: none; stroke: #888; stroke-width: 1; opacity: 1;"></line><line transform="translate(223,0)" x2="0" y2="5" style="fill: none; stroke: #888; stroke-width: 1; opacity: 1;"></line><line transform="translate(229,0)" x2="0" y2="5" style="fill: none; stroke: #888; stroke-width: 1; opacity: 1;"></line><line transform="translate(234,0)" x2="0" y2="5" style="fill: none; stroke: #888; stroke-width: 1; opacity: 1;"></line><line transform="translate(240,0)" x2="0" y2="5" style="fill: none; stroke: #888; stroke-width: 1; opacity: 1;"></line><line transform="translate(246,0)" x2="0" y2="5" style="fill: none; stroke: #888; stroke-width: 1; opacity: 1;"></line><line transform="translate(251,0)" x2="0" y2="5" style="fill: none; stroke: #888; stroke-width: 1; opacity: 1;"></line><line transform="translate(257,0)" x2="0" y2="5" style="fill: none; stroke: #888; stroke-width: 1; opacity: 1;"></line><line transform="translate(263,0)" x2="0" y2="5" style="fill: none; stroke: #888; stroke-width: 1; opacity: 1;"></line><line transform="translate(269,0)" x2="0" y2="5" style="fill: none; stroke: #888; stroke-width: 1; opacity: 1;"></line><line transform="translate(274,0)" x2="0" y2="5" style="fill: none; stroke: #888; stroke-width: 1; opacity: 1;"></line><line transform="translate(280,0)" x2="0" y2="5" style="fill: none; stroke: #888; stroke-width: 1; opacity: 1;"></line><line transform="translate(286,0)" x2="0" y2="5" style="fill: none; stroke: #888; stroke-width: 1; opacity: 1;"></line><line transform="translate(291,0)" x2="0" y2="5" style="fill: none; stroke: #888; stroke-width: 1; opacity: 1;"></line><line transform="translate(297,0)" x2="0" y2="5" style="fill: none; stroke: #888; stroke-width: 1; opacity: 1;"></line><line transform="translate(303,0)" x2="0" y2="5" style="fill: none; stroke: #888; stroke-width: 1; opacity: 1;"></line><line transform="translate(309,0)" x2="0" y2="5" style="fill: none; stroke: #888; stroke-width: 1; opacity: 1;"></line><line transform="translate(314,0)" x2="0" y2="5" style="fill: none; stroke: #888; stroke-width: 1; opacity: 1;"></line><line transform="translate(320,0)" x2="0" y2="5" style="fill: none; stroke: #888; stroke-width: 1; opacity: 1;"></line><line transform="translate(326,0)" x2="0" y2="5" style="fill: none; stroke: #888; stroke-width: 1; opacity: 1;"></line><line transform="translate(331,0)" x2="0" y2="5" style="fill: none; stroke: #888; stroke-width: 1; opacity: 1;"></line><line transform="translate(337,0)" x2="0" y2="5" style="fill: none; stroke: #888; stroke-width: 1; opacity: 1;"></line><line transform="translate(343,0)" x2="0" y2="5" style="fill: none; stroke: #888; stroke-width: 1; opacity: 1;"></line><line transform="translate(349,0)" x2="0" y2="5" style="fill: none; stroke: #888; stroke-width: 1; opacity: 1;"></line><line transform="translate(354,0)" x2="0" y2="5" style="fill: none; stroke: #888; stroke-width: 1; opacity: 1;"></line><line transform="translate(360,0)" x2="0" y2="5" style="fill: none; stroke: #888; stroke-width: 1; opacity: 1;"></line><line transform="translate(366,0)" x2="0" y2="5" style="fill: none; stroke: #888; stroke-width: 1; opacity: 1;"></line><line transform="translate(371,0)" x2="0" y2="5" style="fill: none; stroke: #888; stroke-width: 1; opacity: 1;"></line><line transform="translate(377,0)" x2="0" y2="5" style="fill: none; stroke: #888; stroke-width: 1; opacity: 1;"></line><line transform="translate(383,0)" x2="0" y2="5" style="fill: none; stroke: #888; stroke-width: 1; opacity: 1;"></line><line transform="translate(389,0)" x2="0" y2="5" style="fill: none; stroke: #888; stroke-width: 1; opacity: 1;"></line><line transform="translate(394,0)" x2="0" y2="5" style="fill: none; stroke: #888; stroke-width: 1; opacity: 1;"></line><line transform="translate(400,0)" x2="0" y2="5" style="fill: none; stroke: #888; stroke-width: 1; opacity: 1;"></line></g><g class="mark-text role-axis-label" style="pointer-events: none;"><text text-anchor="start" transform="translate(0,18)" style="font-family: sans-serif; font-size: 14px; fill: #000; opacity: 1;">0</text><text text-anchor="middle" transform="translate(5.714285714285714,18)" style="font-family: sans-serif; font-size: 14px; fill: #000; opacity: 0;">100</text><text text-anchor="middle" transform="translate(11.428571428571429,18)" style="font-family: sans-serif; font-size: 14px; fill: #000; opacity: 0;">200</text><text text-anchor="middle" transform="translate(17.142857142857142,18)" style="font-family: sans-serif; font-size: 14px; fill: #000; opacity: 0;">300</text><text text-anchor="middle" transform="translate(22.857142857142858,18)" style="font-family: sans-serif; font-size: 14px; fill: #000; opacity: 0;">400</text><text text-anchor="middle" transform="translate(28.57142857142857,18)" style="font-family: sans-serif; font-size: 14px; fill: #000; opacity: 0;">500</text><text text-anchor="middle" transform="translate(34.285714285714285,18)" style="font-family: sans-serif; font-size: 14px; fill: #000; opacity: 0;">600</text><text text-anchor="middle" transform="translate(40,18)" style="font-family: sans-serif; font-size: 14px; fill: #000; opacity: 0;">700</text><text text-anchor="middle" transform="translate(45.714285714285715,18)" style="font-family: sans-serif; font-size: 14px; fill: #000; opacity: 1;">800</text><text text-anchor="middle" transform="translate(51.42857142857142,18)" style="font-family: sans-serif; font-size: 14px; fill: #000; opacity: 0;">900</text><text text-anchor="middle" transform="translate(57.14285714285714,18)" style="font-family: sans-serif; font-size: 14px; fill: #000; opacity: 0;">1,000</text><text text-anchor="middle" transform="translate(62.857142857142854,18)" style="font-family: sans-serif; font-size: 14px; fill: #000; opacity: 0;">1,100</text><text text-anchor="middle" transform="translate(68.57142857142857,18)" style="font-family: sans-serif; font-size: 14px; fill: #000; opacity: 0;">1,200</text><text text-anchor="middle" transform="translate(74.28571428571429,18)" style="font-family: sans-serif; font-size: 14px; fill: #000; opacity: 0;">1,300</text><text text-anchor="middle" transform="translate(80,18)" style="font-family: sans-serif; font-size: 14px; fill: #000; opacity: 0;">1,400</text><text text-anchor="middle" transform="translate(85.71428571428571,18)" style="font-family: sans-serif; font-size: 14px; fill: #000; opacity: 0;">1,500</text><text text-anchor="middle" transform="translate(91.42857142857143,18)" style="font-family: sans-serif; font-size: 14px; fill: #000; opacity: 1;">1,600</text><text text-anchor="middle" transform="translate(97.14285714285714,18)" style="font-family: sans-serif; font-size: 14px; fill: #000; opacity: 0;">1,700</text><text text-anchor="middle" transform="translate(102.85714285714285,18)" style="font-family: sans-serif; font-size: 14px; fill: #000; opacity: 0;">1,800</text><text text-anchor="middle" transform="translate(108.57142857142857,18)" style="font-family: sans-serif; font-size: 14px; fill: #000; opacity: 0;">1,900</text><text text-anchor="middle" transform="translate(114.28571428571428,18)" style="font-family: sans-serif; font-size: 14px; fill: #000; opacity: 0;">2,000</text><text text-anchor="middle" transform="translate(120,18)" style="font-family: sans-serif; font-size: 14px; fill: #000; opacity: 0;">2,100</text><text text-anchor="middle" transform="translate(125.71428571428571,18)" style="font-family: sans-serif; font-size: 14px; fill: #000; opacity: 0;">2,200</text><text text-anchor="middle" transform="translate(131.42857142857142,18)" style="font-family: sans-serif; font-size: 14px; fill: #000; opacity: 0;">2,300</text><text text-anchor="middle" transform="translate(137.14285714285714,18)" style="font-family: sans-serif; font-size: 14px; fill: #000; opacity: 1;">2,400</text><text text-anchor="middle" transform="translate(142.85714285714286,18)" style="font-family: sans-serif; font-size: 14px; fill: #000; opacity: 0;">2,500</text><text text-anchor="middle" transform="translate(148.57142857142858,18)" style="font-family: sans-serif; font-size: 14px; fill: #000; opacity: 0;">2,600</text><text text-anchor="middle" transform="translate(154.2857142857143,18)" style="font-family: sans-serif; font-size: 14px; fill: #000; opacity: 0;">2,700</text><text text-anchor="middle" transform="translate(160,18)" style="font-family: sans-serif; font-size: 14px; fill: #000; opacity: 0;">2,800</text><text text-anchor="middle" transform="translate(165.71428571428572,18)" style="font-family: sans-serif; font-size: 14px; fill: #000; opacity: 0;">2,900</text><text text-anchor="middle" transform="translate(171.42857142857142,18)" style="font-family: sans-serif; font-size: 14px; fill: #000; opacity: 0;">3,000</text><text text-anchor="middle" transform="translate(177.14285714285714,18)" style="font-family: sans-serif; font-size: 14px; fill: #000; opacity: 0;">3,100</text><text text-anchor="middle" transform="translate(182.85714285714286,18)" style="font-family: sans-serif; font-size: 14px; fill: #000; opacity: 1;">3,200</text><text text-anchor="middle" transform="translate(188.57142857142856,18)" style="font-family: sans-serif; font-size: 14px; fill: #000; opacity: 0;">3,300</text><text text-anchor="middle" transform="translate(194.28571428571428,18)" style="font-family: sans-serif; font-size: 14px; fill: #000; opacity: 0;">3,400</text><text text-anchor="middle" transform="translate(200,18)" style="font-family: sans-serif; font-size: 14px; fill: #000; opacity: 0;">3,500</text><text text-anchor="middle" transform="translate(205.7142857142857,18)" style="font-family: sans-serif; font-size: 14px; fill: #000; opacity: 0;">3,600</text><text text-anchor="middle" transform="translate(211.42857142857144,18)" style="font-family: sans-serif; font-size: 14px; fill: #000; opacity: 0;">3,700</text><text text-anchor="middle" transform="translate(217.14285714285714,18)" style="font-family: sans-serif; font-size: 14px; fill: #000; opacity: 0;">3,800</text><text text-anchor="middle" transform="translate(222.85714285714286,18)" style="font-family: sans-serif; font-size: 14px; fill: #000; opacity: 0;">3,900</text><text text-anchor="middle" transform="translate(228.57142857142856,18)" style="font-family: sans-serif; font-size: 14px; fill: #000; opacity: 1;">4,000</text><text text-anchor="middle" transform="translate(234.2857142857143,18)" style="font-family: sans-serif; font-size: 14px; fill: #000; opacity: 0;">4,100</text><text text-anchor="middle" transform="translate(240,18)" style="font-family: sans-serif; font-size: 14px; fill: #000; opacity: 0;">4,200</text><text text-anchor="middle" transform="translate(245.71428571428572,18)" style="font-family: sans-serif; font-size: 14px; fill: #000; opacity: 0;">4,300</text><text text-anchor="middle" transform="translate(251.42857142857142,18)" style="font-family: sans-serif; font-size: 14px; fill: #000; opacity: 0;">4,400</text><text text-anchor="middle" transform="translate(257.14285714285717,18)" style="font-family: sans-serif; font-size: 14px; fill: #000; opacity: 0;">4,500</text><text text-anchor="middle" transform="translate(262.85714285714283,18)" style="font-family: sans-serif; font-size: 14px; fill: #000; opacity: 0;">4,600</text><text text-anchor="middle" transform="translate(268.57142857142856,18)" style="font-family: sans-serif; font-size: 14px; fill: #000; opacity: 0;">4,700</text><text text-anchor="middle" transform="translate(274.2857142857143,18)" style="font-family: sans-serif; font-size: 14px; fill: #000; opacity: 1;">4,800</text><text text-anchor="middle" transform="translate(280,18)" style="font-family: sans-serif; font-size: 14px; fill: #000; opacity: 0;">4,900</text><text text-anchor="middle" transform="translate(285.7142857142857,18)" style="font-family: sans-serif; font-size: 14px; fill: #000; opacity: 0;">5,000</text><text text-anchor="middle" transform="translate(291.4285714285714,18)" style="font-family: sans-serif; font-size: 14px; fill: #000; opacity: 0;">5,100</text><text text-anchor="middle" transform="translate(297.14285714285717,18)" style="font-family: sans-serif; font-size: 14px; fill: #000; opacity: 0;">5,200</text><text text-anchor="middle" transform="translate(302.85714285714283,18)" style="font-family: sans-serif; font-size: 14px; fill: #000; opacity: 0;">5,300</text><text text-anchor="middle" transform="translate(308.5714285714286,18)" style="font-family: sans-serif; font-size: 14px; fill: #000; opacity: 0;">5,400</text><text text-anchor="middle" transform="translate(314.2857142857143,18)" style="font-family: sans-serif; font-size: 14px; fill: #000; opacity: 0;">5,500</text><text text-anchor="middle" transform="translate(320,18)" style="font-family: sans-serif; font-size: 14px; fill: #000; opacity: 1;">5,600</text><text text-anchor="middle" transform="translate(325.7142857142857,18)" style="font-family: sans-serif; font-size: 14px; fill: #000; opacity: 0;">5,700</text><text text-anchor="middle" transform="translate(331.42857142857144,18)" style="font-family: sans-serif; font-size: 14px; fill: #000; opacity: 0;">5,800</text><text text-anchor="middle" transform="translate(337.14285714285717,18)" style="font-family: sans-serif; font-size: 14px; fill: #000; opacity: 0;">5,900</text><text text-anchor="middle" transform="translate(342.85714285714283,18)" style="font-family: sans-serif; font-size: 14px; fill: #000; opacity: 0;">6,000</text><text text-anchor="middle" transform="translate(348.57142857142856,18)" style="font-family: sans-serif; font-size: 14px; fill: #000; opacity: 0;">6,100</text><text text-anchor="middle" transform="translate(354.2857142857143,18)" style="font-family: sans-serif; font-size: 14px; fill: #000; opacity: 0;">6,200</text><text text-anchor="middle" transform="translate(360,18)" style="font-family: sans-serif; font-size: 14px; fill: #000; opacity: 0;">6,300</text><text text-anchor="middle" transform="translate(365.7142857142857,18)" style="font-family: sans-serif; font-size: 14px; fill: #000; opacity: 1;">6,400</text><text text-anchor="middle" transform="translate(371.42857142857144,18)" style="font-family: sans-serif; font-size: 14px; fill: #000; opacity: 0;">6,500</text><text text-anchor="middle" transform="translate(377.1428571428571,18)" style="font-family: sans-serif; font-size: 14px; fill: #000; opacity: 0;">6,600</text><text text-anchor="middle" transform="translate(382.8571428571429,18)" style="font-family: sans-serif; font-size: 14px; fill: #000; opacity: 0;">6,700</text><text text-anchor="middle" transform="translate(388.57142857142856,18)" style="font-family: sans-serif; font-size: 14px; fill: #000; opacity: 0;">6,800</text><text text-anchor="middle" transform="translate(394.28571428571433,18)" style="font-family: sans-serif; font-size: 14px; fill: #000; opacity: 0;">6,900</text><text text-anchor="end" transform="translate(400,18)" style="font-family: sans-serif; font-size: 14px; fill: #000; opacity: 0;">7,000</text></g><g class="mark-rule role-axis-domain" style="pointer-events: none;"><line transform="translate(0,0)" x2="400" y2="0" style="fill: none; stroke: #888; stroke-width: 1; opacity: 1;"></line></g><g class="mark-text role-axis-title" style="pointer-events: none;"><text text-anchor="middle" transform="translate(200,38)" style="font-family: sans-serif; font-size: 16px; font-weight: bold; fill: #000; opacity: 1;">Rider Count</text></g></g><path class="foreground" d="" style="pointer-events: none; display: none; fill: none;"></path></g></g><g class="mark-group role-axis"><g transform="translate(0.5,0.5)"><path class="background" d="M0,0h0v0h0Z" style="pointer-events: none; fill: none;"></path><g><g class="mark-rule role-axis-tick" style="pointer-events: none;"><line transform="translate(0,300)" x2="-5" y2="0" style="fill: none; stroke: #888; stroke-width: 1; opacity: 1;"></line><line transform="translate(0,263)" x2="-5" y2="0" style="fill: none; stroke: #888; stroke-width: 1; opacity: 1;"></line><line transform="translate(0,225)" x2="-5" y2="0" style="fill: none; stroke: #888; stroke-width: 1; opacity: 1;"></line><line transform="translate(0,188)" x2="-5" y2="0" style="fill: none; stroke: #888; stroke-width: 1; opacity: 1;"></line><line transform="translate(0,150)" x2="-5" y2="0" style="fill: none; stroke: #888; stroke-width: 1; opacity: 1;"></line><line transform="translate(0,113)" x2="-5" y2="0" style="fill: none; stroke: #888; stroke-width: 1; opacity: 1;"></line><line transform="translate(0,75)" x2="-5" y2="0" style="fill: none; stroke: #888; stroke-width: 1; opacity: 1;"></line><line transform="translate(0,38)" x2="-5" y2="0" style="fill: none; stroke: #888; stroke-width: 1; opacity: 1;"></line><line transform="translate(0,0)" x2="-5" y2="0" style="fill: none; stroke: #888; stroke-width: 1; opacity: 1;"></line></g><g class="mark-text role-axis-label" style="pointer-events: none;"><text text-anchor="end" transform="translate(-7,304)" style="font-family: sans-serif; font-size: 14px; fill: #000; opacity: 1;">0</text><text text-anchor="end" transform="translate(-7,266.5)" style="font-family: sans-serif; font-size: 14px; fill: #000; opacity: 1;">10</text><text text-anchor="end" transform="translate(-7,229)" style="font-family: sans-serif; font-size: 14px; fill: #000; opacity: 1;">20</text><text text-anchor="end" transform="translate(-7,191.5)" style="font-family: sans-serif; font-size: 14px; fill: #000; opacity: 1;">30</text><text text-anchor="end" transform="translate(-7,154)" style="font-family: sans-serif; font-size: 14px; fill: #000; opacity: 1;">40</text><text text-anchor="end" transform="translate(-7,116.5)" style="font-family: sans-serif; font-size: 14px; fill: #000; opacity: 1;">50</text><text text-anchor="end" transform="translate(-7,79)" style="font-family: sans-serif; font-size: 14px; fill: #000; opacity: 1;">60</text><text text-anchor="end" transform="translate(-7,41.5)" style="font-family: sans-serif; font-size: 14px; fill: #000; opacity: 1;">70</text><text text-anchor="end" transform="translate(-7,4)" style="font-family: sans-serif; font-size: 14px; fill: #000; opacity: 1;">80</text></g><g class="mark-rule role-axis-domain" style="pointer-events: none;"><line transform="translate(0,300)" x2="0" y2="-300" style="fill: none; stroke: #888; stroke-width: 1; opacity: 1;"></line></g><g class="mark-text role-axis-title" style="pointer-events: none;"><text text-anchor="middle" transform="translate(-26.572265625,150) rotate(-90) translate(0,-3)" style="font-family: sans-serif; font-size: 16px; font-weight: bold; fill: #000; opacity: 1;">Number of Days</text></g></g><path class="foreground" d="" style="pointer-events: none; display: none; fill: none;"></path></g></g><g class="mark-group role-scope pathgroup"><g transform="translate(0,0)"><path class="background" d="M0,0h400v300h-400Z" style="fill: none;"></path><g><g class="mark-area role-mark marks"><path d="M2.857142857142857,135L5.714285714285714,135L5.714285714285714,29.999999999999993L11.428571428571427,29.999999999999993L11.428571428571427,90.00000000000001L17.142857142857142,90.00000000000001L17.142857142857142,112.5L22.857142857142854,112.5L22.857142857142854,131.25L28.57142857142857,131.25L28.57142857142857,172.5L34.285714285714285,172.5L34.285714285714285,75L40,75L40,75L45.71428571428571,75L45.71428571428571,131.25L51.42857142857143,131.25L51.42857142857143,157.5L57.14285714285714,157.5L57.14285714285714,131.25L62.857142857142854,131.25L62.857142857142854,221.25L68.57142857142857,221.25L68.57142857142857,225L74.28571428571429,225L74.28571428571429,243.75L80,243.75L80,236.25L85.71428571428572,236.25L85.71428571428572,240L91.42857142857142,240L91.42857142857142,270L97.14285714285714,270L97.14285714285714,270L102.85714285714286,270L102.85714285714286,281.25L108.57142857142858,281.25L108.57142857142858,273.75L114.28571428571429,273.75L114.28571428571429,281.25L120,281.25L120,277.5L125.71428571428572,277.5L125.71428571428572,255L131.42857142857144,255L131.42857142857144,273.75L137.14285714285714,273.75L137.14285714285714,281.25L142.85714285714283,281.25L142.85714285714283,266.25L148.57142857142856,266.25L148.57142857142856,281.25L154.28571428571428,281.25L154.28571428571428,285L160,285L160,285L165.71428571428572,285L165.71428571428572,296.25L171.42857142857144,296.25L171.42857142857144,292.5L177.14285714285714,292.5L177.14285714285714,292.5L182.85714285714286,292.5L182.85714285714286,292.5L191.42857142857144,292.5L191.42857142857144,296.25L197.14285714285717,296.25L197.14285714285717,300L191.42857142857144,300L191.42857142857144,300L182.85714285714286,300L182.85714285714286,300L177.14285714285714,300L177.14285714285714,300L171.42857142857144,300L171.42857142857144,300L165.71428571428572,300L165.71428571428572,300L160,300L160,300L154.28571428571428,300L154.28571428571428,300L148.57142857142856,300L148.57142857142856,300L142.85714285714283,300L142.85714285714283,300L137.14285714285714,300L137.14285714285714,300L131.42857142857144,300L131.42857142857144,300L125.71428571428572,300L125.71428571428572,300L120,300L120,300L114.28571428571429,300L114.28571428571429,300L108.57142857142858,300L108.57142857142858,300L102.85714285714286,300L102.85714285714286,300L97.14285714285714,300L97.14285714285714,300L91.42857142857142,300L91.42857142857142,300L85.71428571428572,300L85.71428571428572,300L80,300L80,300L74.28571428571429,300L74.28571428571429,300L68.57142857142857,300L68.57142857142857,300L62.857142857142854,300L62.857142857142854,300L57.14285714285714,300L57.14285714285714,300L51.42857142857143,300L51.42857142857143,300L45.71428571428571,300L45.71428571428571,300L40,300L40,300L34.285714285714285,300L34.285714285714285,300L28.57142857142857,300L28.57142857142857,300L22.857142857142854,300L22.857142857142854,300L17.142857142857142,300L17.142857142857142,300L11.428571428571427,300L11.428571428571427,300L5.714285714285714,300L5.714285714285714,300L2.857142857142857,300Z" style="fill: #4c78a8; opacity: 0.5;"></path></g></g><path class="foreground" d="" style="display: none; fill: none;"></path></g><g transform="translate(0,0)"><path class="background" d="M0,0h400v300h-400Z" style="fill: none;"></path><g><g class="mark-area role-mark marks"><path d="M2.857142857142857,296.25L14.285714285714285,296.25L14.285714285714285,281.25L28.57142857142857,281.25L28.57142857142857,288.75L34.285714285714285,288.75L34.285714285714285,281.25L40,281.25L40,292.5L45.71428571428571,292.5L45.71428571428571,273.75L51.42857142857143,273.75L51.42857142857143,273.75L57.14285714285714,273.75L57.14285714285714,288.75L62.857142857142854,288.75L62.857142857142854,273.75L68.57142857142857,273.75L68.57142857142857,273.75L74.28571428571429,273.75L74.28571428571429,258.75L80,258.75L80,247.5L85.71428571428572,247.5L85.71428571428572,243.75L91.42857142857142,243.75L91.42857142857142,255L97.14285714285714,255L97.14285714285714,240L102.85714285714286,240L102.85714285714286,266.25L108.57142857142858,266.25L108.57142857142858,273.75L114.28571428571429,273.75L114.28571428571429,277.5L120,277.5L120,262.5L125.71428571428572,262.5L125.71428571428572,262.5L131.42857142857144,262.5L131.42857142857144,258.75L137.14285714285714,258.75L137.14285714285714,243.75L142.85714285714283,243.75L142.85714285714283,258.75L148.57142857142856,258.75L148.57142857142856,266.25L154.28571428571428,266.25L154.28571428571428,240L160,240L160,266.25L165.71428571428572,266.25L165.71428571428572,247.5L171.42857142857144,247.5L171.42857142857144,281.25L177.14285714285714,281.25L177.14285714285714,202.5L182.85714285714286,202.5L182.85714285714286,240L188.57142857142858,240L188.57142857142858,213.75L194.2857142857143,213.75L194.2857142857143,213.75L200,213.75L200,236.25L205.71428571428572,236.25L205.71428571428572,217.5L211.42857142857144,217.5L211.42857142857144,221.25L217.14285714285717,221.25L217.14285714285717,180L222.8571428571429,180L222.8571428571429,247.5L228.57142857142858,247.5L228.57142857142858,225L234.28571428571428,225L234.28571428571428,232.5L240,232.5L240,255L245.71428571428572,255L245.71428571428572,247.5L251.42857142857144,247.5L251.42857142857144,236.25L257.1428571428571,236.25L257.1428571428571,277.5L262.8571428571429,277.5L262.8571428571429,251.25L268.57142857142856,251.25L268.57142857142856,270L274.2857142857143,270L274.2857142857143,247.5L280,247.5L280,277.5L285.7142857142857,277.5L285.7142857142857,258.75L291.42857142857144,258.75L291.42857142857144,228.75L297.14285714285717,228.75L297.14285714285717,251.25L302.85714285714283,251.25L302.85714285714283,266.25L308.57142857142856,266.25L308.57142857142856,292.5L314.2857142857143,292.5L314.2857142857143,266.25L320,266.25L320,262.5L325.7142857142857,262.5L325.7142857142857,270L331.42857142857144,270L331.42857142857144,270L337.1428571428571,270L337.1428571428571,262.5L342.8571428571429,262.5L342.8571428571429,277.5L348.57142857142856,277.5L348.57142857142856,273.75L354.28571428571433,273.75L354.28571428571433,243.75L360,243.75L360,292.5L365.71428571428567,292.5L365.71428571428567,258.75L371.42857142857144,258.75L371.42857142857144,285L377.1428571428571,285L377.1428571428571,273.75L382.8571428571429,273.75L382.8571428571429,285L388.57142857142856,285L388.57142857142856,285L394.2857142857143,285L394.2857142857143,288.75L397.14285714285717,288.75L397.14285714285717,300L394.2857142857143,300L394.2857142857143,300L388.57142857142856,300L388.57142857142856,300L382.8571428571429,300L382.8571428571429,300L377.1428571428571,300L377.1428571428571,300L371.42857142857144,300L371.42857142857144,300L365.71428571428567,300L365.71428571428567,300L360,300L360,300L354.28571428571433,300L354.28571428571433,300L348.57142857142856,300L348.57142857142856,300L342.8571428571429,300L342.8571428571429,300L337.1428571428571,300L337.1428571428571,300L331.42857142857144,300L331.42857142857144,300L325.7142857142857,300L325.7142857142857,300L320,300L320,300L314.2857142857143,300L314.2857142857143,300L308.57142857142856,300L308.57142857142856,300L302.85714285714283,300L302.85714285714283,300L297.14285714285717,300L297.14285714285717,300L291.42857142857144,300L291.42857142857144,300L285.7142857142857,300L285.7142857142857,300L280,300L280,300L274.2857142857143,300L274.2857142857143,300L268.57142857142856,300L268.57142857142856,300L262.8571428571429,300L262.8571428571429,300L257.1428571428571,300L257.1428571428571,300L251.42857142857144,300L251.42857142857144,300L245.71428571428572,300L245.71428571428572,300L240,300L240,300L234.28571428571428,300L234.28571428571428,300L228.57142857142858,300L228.57142857142858,300L222.8571428571429,300L222.8571428571429,300L217.14285714285717,300L217.14285714285717,300L211.42857142857144,300L211.42857142857144,300L205.71428571428572,300L205.71428571428572,300L200,300L200,300L194.2857142857143,300L194.2857142857143,300L188.57142857142858,300L188.57142857142858,300L182.85714285714286,300L182.85714285714286,300L177.14285714285714,300L177.14285714285714,300L171.42857142857144,300L171.42857142857144,300L165.71428571428572,300L165.71428571428572,300L160,300L160,300L154.28571428571428,300L154.28571428571428,300L148.57142857142856,300L148.57142857142856,300L142.85714285714283,300L142.85714285714283,300L137.14285714285714,300L137.14285714285714,300L131.42857142857144,300L131.42857142857144,300L125.71428571428572,300L125.71428571428572,300L120,300L120,300L114.28571428571429,300L114.28571428571429,300L108.57142857142858,300L108.57142857142858,300L102.85714285714286,300L102.85714285714286,300L97.14285714285714,300L97.14285714285714,300L91.42857142857142,300L91.42857142857142,300L85.71428571428572,300L85.71428571428572,300L80,300L80,300L74.28571428571429,300L74.28571428571429,300L68.57142857142857,300L68.57142857142857,300L62.857142857142854,300L62.857142857142854,300L57.14285714285714,300L57.14285714285714,300L51.42857142857143,300L51.42857142857143,300L45.71428571428571,300L45.71428571428571,300L40,300L40,300L34.285714285714285,300L34.285714285714285,300L28.57142857142857,300L28.57142857142857,300L14.285714285714285,300L14.285714285714285,300L2.857142857142857,300Z" style="fill: #f58518; opacity: 0.5;"></path></g></g><path class="foreground" d="" style="display: none; fill: none;"></path></g></g><g class="mark-group role-legend"><g transform="translate(418,0)"><path class="background" d="M0,0h75v49h-75Z" style="pointer-events: none; fill: none;"></path><g><g class="mark-group role-legend-entry"><g transform="translate(0,19)"><path class="background" d="M0,0h0v0h0Z" style="pointer-events: none; fill: none;"></path><g><g class="mark-group role-scope"><g transform="translate(0,0)"><path class="background" d="M0,0h74.80810546875v13.5h-74.80810546875Z" style="pointer-events: none; fill: none; opacity: 1;"></path><g><g class="mark-symbol role-legend-symbol" style="pointer-events: none;"><path transform="translate(6.5,6.5)" d="M5,0A5,5,0,1,1,-5,0A5,5,0,1,1,5,0" style="fill: #4c78a8; stroke-width: 1.5; opacity: 0.5;"></path></g><g class="mark-text role-legend-label" style="pointer-events: none;"><text text-anchor="start" transform="translate(17,10.5)" style="font-family: sans-serif; font-size: 13px; fill: #000; opacity: 1;">casual</text></g></g><path class="foreground" d="" style="pointer-events: none; display: none; fill: none;"></path></g><g transform="translate(0,16)"><path class="background" d="M0,0h74.80810546875v13.5h-74.80810546875Z" style="pointer-events: none; fill: none; opacity: 1;"></path><g><g class="mark-symbol role-legend-symbol" style="pointer-events: none;"><path transform="translate(6.5,6.5)" d="M5,0A5,5,0,1,1,-5,0A5,5,0,1,1,5,0" style="fill: #f58518; stroke-width: 1.5; opacity: 0.5;"></path></g><g class="mark-text role-legend-label" style="pointer-events: none;"><text text-anchor="start" transform="translate(17,10.5)" style="font-family: sans-serif; font-size: 13px; fill: #000; opacity: 1;">registered</text></g></g><path class="foreground" d="" style="pointer-events: none; display: none; fill: none;"></path></g></g></g><path class="foreground" d="" style="pointer-events: none; display: none; fill: none;"></path></g></g><g class="mark-text role-legend-title" style="pointer-events: none;"><text text-anchor="start" transform="translate(0,11)" style="font-family: sans-serif; font-size: 14px; font-weight: bold; fill: #000; opacity: 1;">Rider Type</text></g></g><path class="foreground" d="" style="pointer-events: none; display: none; fill: none;"></path></g></g><g class="mark-group role-title"><g transform="translate(200,-29)"><path class="background" d="M0,0h0v0h0Z" style="pointer-events: none; fill: none;"></path><g><g class="mark-text role-title-text" style="pointer-events: none;"><text text-anchor="middle" transform="translate(0,14)" style="font-family: sans-serif; font-size: 18px; font-weight: bold; fill: #000; opacity: 1;">A Distribution of Bicycle Riders in Washington D.C. in 2011-2012</text></g></g><path class="foreground" d="" style="pointer-events: none; display: none; fill: none;"></path></g></g></g><path class="foreground" d="" style="display: none; fill: none;"></path></g></g></g></svg>