<svg class="marks" width="518" height="347" viewBox="0 0 518 347" version="1.1" xmlns="http://www.w3.org/2000/svg" xmlns:xlink="http://www.w3.org/1999/xlink"><rect width="518" height="347" style="fill: white;"></rect><g transform="translate(47,10)"><g class="mark-group role-frame root"><g transform="translate(0,0)"><path class="background" d="M0.5,0.5h400v300h-400Z" style="fill: none; stroke: #ddd;"></path><g><g class="mark-group role-axis"><g transform="translate(0.5,300.5)"><path class="background" d="M0,0h0v0h0Z" style="pointer-events: none; fill: none;"></path><g><g class="mark-rule role-axis-grid" style="pointer-events: none;"><line transform="translate(0,-300)" x2="0" y2="300" style="fill: none; stroke: #ddd; stroke-width: 1; opacity: 1;"></line><line transform="translate(40,-300)" x2="0" y2="300" style="fill: none; stroke: #ddd; stroke-width: 1; opacity: 1;"></line><line transform="translate(80,-300)" x2="0" y2="300" style="fill: none; stroke: #ddd; stroke-width: 1; opacity: 1;"></line><line transform="translate(120,-300)" x2="0" y2="300" style="fill: none; stroke: #ddd; stroke-width: 1; opacity: 1;"></line><line transform="translate(160,-300)" x2="0" y2="300" style="fill: none; stroke: #ddd; stroke-width: 1; opacity: 1;"></line><line transform="translate(200,-300)" x2="0" y2="300" style="fill: none; stroke: #ddd; stroke-width: 1; opacity: 1;"></line><line transform="translate(240,-300)" x2="0" y2="300" style="fill: none; stroke: #ddd; stroke-width: 1; opacity: 1;"></line><line transform="translate(280,-300)" x2="0" y2="300" style="fill: none; stroke: #ddd; stroke-width: 1; opacity: 1;"></line><line transform="translate(320,-300)" x2="0" y2="300" style="fill: none; stroke: #ddd; stroke-width: 1; opacity: 1;"></line><line transform="translate(360,-300)" x2="0" y2="300" style="fill: none; stroke: #ddd; stroke-width: 1; opacity: 1;"></line><line transform="translate(400,-300)" x2="0" y2="300" style="fill: none; stroke: #ddd; stroke-width: 1; opacity: 1;"></line></g></g><path class="foreground" d="" style="pointer-events: none; display: none; fill: none;"></path></g></g><g class="mark-group role-axis"><g transform="translate(0.5,0.5)"><path class="background" d="M0,0h0v0h0Z" style="pointer-events: none; fill: none;"></path><g><g class="mark-rule role-axis-grid" style="pointer-events: none;"><line transform="translate(0,300)" x2="400" y2="0" style="fill: none; stroke: #ddd; stroke-width: 1; opacity: 1;"></line><line transform="translate(0,263)" x2="400" y2="0" style="fill: none; stroke: #ddd; stroke-width: 1; opacity: 1;"></line><line transform="translate(0,225)" x2="400" y2="0" style="fill: none; stroke: #ddd; stroke-width: 1; opacity: 1;"></line><line transform="translate(0,188)" x2="400" y2="0" style="fill: none; stroke: #ddd; stroke-width: 1; opacity: 1;"></line><line transform="translate(0,150)" x2="400" y2="0" style="fill: none; stroke: #ddd; stroke-width: 1; opacity: 1;"></line><line transform="translate(0,113)" x2="400" y2="0" style="fill: none; stroke: #ddd; stroke-width: 1; opacity: 1;"></line><line transform="translate(0,75)" x2="400" y2="0" style="fill: none; stroke: #ddd; stroke-width: 1; opacity: 1;"></line><line transform="translate(0,38)" x2="400" y2="0" style="fill: none; stroke: #ddd; stroke-width: 1; opacity: 1;"></line><line transform="translate(0,0)" x2="400" y2="0" style="fill: none; stroke: #ddd; stroke-width: 1; opacity: 1;"></line></g></g><path class="foreground" d="" style="pointer-events: none; display: none; fill: none;"></path></g></g><g class="mark-group role-axis"><g transform="translate(0.5,300.5)"><path class="background" d="M0,0h0v0h0Z" style="pointer-events: none; fill: none;"></path><g><g class="mark-rule role-axis-tick" style="pointer-events: none;"><line transform="translate(0,0)" x2="0" y2="5" style="fill: none; stroke: #888; stroke-width: 1; opacity: 1;"></line><line transform="translate(40,0)" x2="0" y2="5" style="fill: none; stroke: #888; stroke-width: 1; opacity: 1;"></line><line transform="translate(80,0)" x2="0" y2="5" style="fill: none; stroke: #888; stroke-width: 1; opacity: 1;"></line><line transform="translate(120,0)" x2="0" y2="5" style="fill: none; stroke: #888; stroke-width: 1; opacity: 1;"></line><line transform="translate(160,0)" x2="0" y2="5" style="fill: none; stroke: #888; stroke-width: 1; opacity: 1;"></line><line transform="translate(200,0)" x2="0" y2="5" style="fill: none; stroke: #888; stroke-width: 1; opacity: 1;"></line><line transform="translate(240,0)" x2="0" y2="5" style="fill: none; stroke: #888; stroke-width: 1; opacity: 1;"></line><line transform="translate(280,0)" x2="0" y2="5" style="fill: none; stroke: #888; stroke-width: 1; opacity: 1;"></line><line transform="translate(320,0)" x2="0" y2="5" style="fill: none; stroke: #888; stroke-width: 1; opacity: 1;"></line><line transform="translate(360,0)" x2="0" y2="5" style="fill: none; stroke: #888; stroke-width: 1; opacity: 1;"></line><line transform="translate(400,0)" x2="0" y2="5" style="fill: none; stroke: #888; stroke-width: 1; opacity: 1;"></line></g><g class="mark-text role-axis-label" style="pointer-events: none;"><text text-anchor="start" transform="translate(0,15)" style="font-family: sans-serif; font-size: 10px; fill: #000; opacity: 1;">0.0</text><text text-anchor="middle" transform="translate(40,15)" style="font-family: sans-serif; font-size: 10px; fill: #000; opacity: 1;">0.1</text><text text-anchor="middle" transform="translate(80,15)" style="font-family: sans-serif; font-size: 10px; fill: #000; opacity: 1;">0.2</text><text text-anchor="middle" transform="translate(120,15)" style="font-family: sans-serif; font-size: 10px; fill: #000; opacity: 1;">0.3</text><text text-anchor="middle" transform="translate(160,15)" style="font-family: sans-serif; font-size: 10px; fill: #000; opacity: 1;">0.4</text><text text-anchor="middle" transform="translate(200,15)" style="font-family: sans-serif; font-size: 10px; fill: #000; opacity: 1;">0.5</text><text text-anchor="middle" transform="translate(240,15)" style="font-family: sans-serif; font-size: 10px; fill: #000; opacity: 1;">0.6</text><text text-anchor="middle" transform="translate(280,15)" style="font-family: sans-serif; font-size: 10px; fill: #000; opacity: 1;">0.7</text><text text-anchor="middle" transform="translate(320,15)" style="font-family: sans-serif; font-size: 10px; fill: #000; opacity: 1;">0.8</text><text text-anchor="middle" transform="translate(360,15)" style="font-family: sans-serif; font-size: 10px; fill: #000; opacity: 1;">0.9</text><text text-anchor="end" transform="translate(400,15)" style="font-family: sans-serif; font-size: 10px; fill: #000; opacity: 1;">1.0</text></g><g class="mark-rule role-axis-domain" style="pointer-events: none;"><line transform="translate(0,0)" x2="400" y2="0" style="fill: none; stroke: #888; stroke-width: 1; opacity: 1;"></line></g><g class="mark-text role-axis-title" style="pointer-events: none;"><text text-anchor="middle" transform="translate(200,30)" style="font-family: sans-serif; font-size: 11px; font-weight: bold; fill: #000; opacity: 1;">Temperature (Fahrenheit)</text></g></g><path class="foreground" d="" style="pointer-events: none; display: none; fill: none;"></path></g></g><g class="mark-group role-axis"><g transform="translate(0.5,0.5)"><path class="background" d="M0,0h0v0h0Z" style="pointer-events: none; fill: none;"></path><g><g class="mark-rule role-axis-tick" style="pointer-events: none;"><line transform="translate(0,300)" x2="-5" y2="0" style="fill: none; stroke: #888; stroke-width: 1; opacity: 1;"></line><line transform="translate(0,263)" x2="-5" y2="0" style="fill: none; stroke: #888; stroke-width: 1; opacity: 1;"></line><line transform="translate(0,225)" x2="-5" y2="0" style="fill: none; stroke: #888; stroke-width: 1; opacity: 1;"></line><line transform="translate(0,188)" x2="-5" y2="0" style="fill: none; stroke: #888; stroke-width: 1; opacity: 1;"></line><line transform="translate(0,150)" x2="-5" y2="0" style="fill: none; stroke: #888; stroke-width: 1; opacity: 1;"></line><line transform="translate(0,113)" x2="-5" y2="0" style="fill: none; stroke: #888; stroke-width: 1; opacity: 1;"></line><line transform="translate(0,75)" x2="-5" y2="0" style="fill: none; stroke: #888; stroke-width: 1; opacity: 1;"></line><line transform="translate(0,38)" x2="-5" y2="0" style="fill: none; stroke: #888; stroke-width: 1; opacity: 1;"></line><line transform="translate(0,0)" x2="-5" y2="0" style="fill: none; stroke: #888; stroke-width: 1; opacity: 1;"></line></g><g class="mark-text role-axis-label" style="pointer-events: none;"><text text-anchor="end" transform="translate(-7,303)" style="font-family: sans-serif; font-size: 10px; fill: #000; opacity: 1;">0.00</text><text text-anchor="end" transform="translate(-7,265.5)" style="font-family: sans-serif; font-size: 10px; fill: #000; opacity: 1;">0.05</text><text text-anchor="end" transform="translate(-7,228)" style="font-family: sans-serif; font-size: 10px; fill: #000; opacity: 1;">0.10</text><text text-anchor="end" transform="translate(-7,190.5)" style="font-family: sans-serif; font-size: 10px; fill: #000; opacity: 1;">0.15</text><text text-anchor="end" transform="translate(-7,153)" style="font-family: sans-serif; font-size: 10px; fill: #000; opacity: 1;">0.20</text><text text-anchor="end" transform="translate(-7,115.5)" style="font-family: sans-serif; font-size: 10px; fill: #000; opacity: 1;">0.25</text><text text-anchor="end" transform="translate(-7,78.00000000000003)" style="font-family: sans-serif; font-size: 10px; fill: #000; opacity: 1;">0.30</text><text text-anchor="end" transform="translate(-7,40.500000000000036)" style="font-family: sans-serif; font-size: 10px; fill: #000; opacity: 1;">0.35</text><text text-anchor="end" transform="translate(-7,3)" style="font-family: sans-serif; font-size: 10px; fill: #000; opacity: 1;">0.40</text></g><g class="mark-rule role-axis-domain" style="pointer-events: none;"><line transform="translate(0,300)" x2="0" y2="-300" style="fill: none; stroke: #888; stroke-width: 1; opacity: 1;"></line></g><g class="mark-text role-axis-title" style="pointer-events: none;"><text text-anchor="middle" transform="translate(-30.462890625,150) rotate(-90) translate(0,-2)" style="font-family: sans-serif; font-size: 11px; font-weight: bold; fill: #000; opacity: 1;">Proportion of causal ridrs</text></g></g><path class="foreground" d="" style="pointer-events: none; display: none; fill: none;"></path></g></g><g class="mark-group role-scope pathgroup"><g transform="translate(0,0)"><path class="background" d="M0,0h400v300h-400Z" style="fill: none;"></path><g><g class="mark-line role-mark marks"><path d="M8.000000000000007,273.7948032735197L15.999999999999993,269.75063454435696L24,265.55101783247085L32.00000000000001,261.17738238194664L40.000000000000014,256.662258173296L48,252.0927584527707L56.00000000000001,247.63085147155118L63.99999999999999,243.52317537937688L72,239.56853061433884L80,234.1340029585102L88.00000000000001,227.41667682004604L96,219.9629418548747L104,211.9202969592062L112.00000000000001,203.8450996988458L120,191.74559671339713L128,179.27081253823022L136,165.75006213871777L144,152.77947744851298L152,139.12238194216997L160,127.77734105549521L168,116.58632725139734L176,108.16324610425804L184,102.17804355483004L192,97.46371780471264L200,94.23210715515364L208,93.23010927582955L216,93.03328991603755L224.00000000000003,92.1723093472957L231.99999999999997,90.72208903551117L240,89.06673118847725L248,86.35085602386711L256,81.85314808913105L264,74.91940406506168L272,65.84424541868478L280,54.34417337240457L288,44.52170577974501L296,38.18320909717049L304,31.641087832723514L312,28.9989444206208L320,28.210442660008106L328,28.3130004674236L336,28.4184630973336L344,28.44973128682472L352,28.52977123269579L360,28.779547758567393L368,29.251279702801735L376,29.956129700127143L384,30.87082548382636L400,33.16862030162716" style="fill: none; stroke: #e45756; stroke-width: 2;"></path></g></g><path class="foreground" d="" style="display: none; fill: none;"></path></g><g transform="translate(0,0)"><path class="background" d="M0,0h400v300h-400Z" style="fill: none;"></path><g><g class="mark-line role-mark marks"><path d="M8.000000000000007,284.79623936359246L15.999999999999993,278.56577655502247L24,272.17334206657L32.00000000000001,265.6532503898634L40.000000000000014,259.0662541546526L48,252.46865586413173L56.00000000000001,245.857937644059L63.99999999999999,239.12938933977273L72,231.91194585736133L80,223.74904669414374L88.00000000000001,215.12282012438354L96,206.64889157392633L104,197.12717342991368L112.00000000000001,186.6452940524344L120,178.2117793159531L128,169.93527584218705L136,164.06495652538268L144,157.28386752989874L152,149.93337523158712L160,138.6251799967822L168,127.14934989604592L176,118.34561012408645L184,109.40801235624215L192,102.19366373864676L200,96.05554976455252L208,90.2094270306365L216,83.88455755318064L224.00000000000003,79.27356844712092L231.99999999999997,75.93789909158889L240,71.92421777206394L248,67.5344195556947L256,64.75302587892541L264,61.57012570626614L272,55.78734573442395L280,48.311793260029276L288,41.78596952762754L296,39.01475550689387L304,37.972139851317486L312,37.95397948164443L320,39.39313705727737L328,41.12210020793613L336,42.855896790213635L344,44.624587255420934L352,46.50559310604682L360,48.549503746755384L368,50.781174358194924L376,53.210786396391505L384,55.81085677138512" style="fill: none; stroke: #72b7b2; stroke-width: 2;"></path></g></g><path class="foreground" d="" style="display: none; fill: none;"></path></g><g transform="translate(0,0)"><path class="background" d="M0,0h400v300h-400Z" style="fill: none;"></path><g><g class="mark-line role-mark marks"><path d="M8.000000000000007,294.0963013097855L15.999999999999993,289.5144263774641L24,284.88594693488955L40.000000000000014,275.47521998605885L48,270.6920645591751L56.00000000000001,265.8802584943654L63.99999999999999,261.0767603912381L72,256.31640947867055L80,251.6305913524768L88.00000000000001,247.0368274311075L96,242.31840093136006L104,237.26683773516913L112.00000000000001,233.40268720438968L120,230.1457869844497L128,227.90857482684112L136,226.57460432939172L144,224.37171075938042L152,222.36642061144977L160,220.25894210605648L168,216.74362427239404L176,212.00958872717203L184,207.27477530456846L192,202.46969243666487L200,196.72510049572494L208,190.29114903200798L216,184.14129536296747L224.00000000000003,178.599352898501L231.99999999999997,172.39456214292926L240,164.6970047826815L248,157.74836267369133L256,151.60904629972046L264,146.86143112860975L272,142.35485082032457L280,137.95055373255434L288,133.50899041777652L296,127.69590698500866L304,122.83991037709576L312,117.50156803526798L320,111.74809660996972L328,105.91457992503068L336,100.12320836697752L344,94.4144791849077L352,88.73306893958285L360,83.01427463988517L368,77.25259495025233" style="fill: none; stroke: #f58518; stroke-width: 2;"></path></g></g><path class="foreground" d="" style="display: none; fill: none;"></path></g><g transform="translate(0,0)"><path class="background" d="M0,0h400v300h-400Z" style="fill: none;"></path><g><g class="mark-line role-mark marks"><path d="M39.99999999999999,289.2030878421078L48,285.66536288505426L56.00000000000001,282.1189592205422L64.00000000000001,278.55948582292416L72,274.9897596036171L80,271.4196490376681L87.99999999999999,267.8683069004623L96,264.35651411150343L104,260.74870540285343L112.00000000000001,257.04117017292316L120,253.582416472623L128,250.3077708310226L136,247.60506993641584L144,244.91229430732147L152,242.5194615971838L160,240.65126180810594L168,238.27937205910698L176,234.7240500272784L184,230.7269021807033L192,226.44445016109879L200,221.41920207966328L208,215.45103857051583L216,210.1513299762698L224.00000000000003,204.91524542112566L231.99999999999997,198.8782077888262L240,194.52048317714957L248,192.5287984615202L256,191.03079078944006L264,188.90897093586082L272,186.26823585220703L280,180.96191743420576L288,175.69256533883305L296,168.24312167830558L304,161.12923919464666L312,155.0061131318974L320,149.48028701288268L328,143.99247153055882L336,138.40767204740501L344,132.81340345926066L352,127.27909270713893L360,121.84437561777744L368,116.53389609549288L376,111.35141452300836" style="fill: none; stroke: #eeca3b; stroke-width: 2;"></path></g></g><path class="foreground" d="" style="display: none; fill: none;"></path></g><g transform="translate(0,0)"><path class="background" d="M0,0h400v300h-400Z" style="fill: none;"></path><g><g class="mark-line role-mark marks"><path d="M8.000000000000007,293.38821296455257L15.999999999999993,291.72100882113693L24,290.02559309422736L32.00000000000001,288.2862514770699L39.99999999999999,286.5001281393736L48,284.6847799975726L56.00000000000001,282.881168399903L64.00000000000001,281.15632791187664L72,279.56801319533696L80,277.7889036646253L87.99999999999999,275.3637953824766L96,272.39211141484344L104,268.9645897434907L112.00000000000001,264.495220873075L120,260.0363195546917L128,254.73213350332034L136,249.56753918147894L144,245.29806957210957L152,241.68227168215054L160,238.47621881763837L168,236.09297412599446L176,234.0185892122113L184,231.37964630392634L192,228.3772379517305L200,225.57716679954703L208,222.88927218155717L216,219.7949455735199L224.00000000000003,215.90861880315146L231.99999999999997,212.63360042067657L240,207.82416249053807L248,203.10695307911132L256,197.75949410137295L264,192.86272371823216L272,188.5889332401994L280,183.30464986852624L288,177.44478197015863L296,170.48031400643333L304,163.95893654802066L312,157.3024469053512L320,151.39832606318288L328,145.44827742736646L336,139.3535552087613L344,133.25948175362745L352,127.22347097901442L360,121.27815310729093L368,115.42464924103338L376,109.63113003675548" style="fill: none; stroke: #b279a2; stroke-width: 2;"></path></g></g><path class="foreground" d="" style="display: none; fill: none;"></path></g><g transform="translate(0,0)"><path class="background" d="M0,0h400v300h-400Z" style="fill: none;"></path><g><g class="mark-line role-mark marks"><path d="M39.99999999999999,295.3229434430641L48,290.4031875453515L56.00000000000001,285.48544995716304L64.00000000000001,280.5939801900986L72,275.75639713421293L80,270.9943713437023L87.99999999999999,266.31670938079384L96,261.6515247076985L104,257.0847825184079L112.00000000000001,253.95074639599446L120,250.66983982320835L128,249.47664100772923L136,248.44185863001454L144,246.85608573004177L152,244.07165609183033L160,239.81693098443455L168,234.116800448912L176,226.99813259286285L184,218.80315941902643L192,210.62888787509112L200,203.07881621317318L208,197.25690060280004L216,195.34104247960283L224.00000000000003,196.3267540613282L231.99999999999997,197.7144475842114L240,200.15505822201726L248,201.9288554477318L256,203.22198347984676L264,199.50280967891567L272,193.01336142902687L280,183.55923193677708L288,174.73227784640233L296,167.0107367977445L304,161.8636533877861L312,156.8298512841868L320,153.9673396963408L328,151.05976969532296L336,148.12482222271177L344,145.29918795750513L352,142.64869194077264L360,140.1847116413194L368,137.8807033962922L376,135.69902971945842" style="fill: none; stroke: #54a24b; stroke-width: 2;"></path></g></g><path class="foreground" d="" style="display: none; fill: none;"></path></g><g transform="translate(0,0)"><path class="background" d="M0,0h400v300h-400Z" style="fill: none;"></path><g><g class="mark-line role-mark marks"><path d="M24,296.3082924545228L32.00000000000001,292.2982476786802L39.99999999999999,288.2409263403229L48,284.1270017594961L56.00000000000001,279.96723095710735L64.00000000000001,275.78178245506234L72,271.58834281164116L80,267.362803474747L87.99999999999999,262.8608734548959L96,257.7547611317338L104,252.47294907088096L112.00000000000001,246.92547257106554L120,240.1940183958968L128,232.71976491487018L136,225.92926500893128L144,220.93329589923138L152,216.12192088859987L160,209.39059411816754L168,201.0724061914634L176,195.14162492050343L184,189.7822133177979L192,187.90399114049558L200,182.56404404641142L208,182.13395316084757L216,181.5267451294477L224.00000000000003,181.35421967429636L231.99999999999997,181.7522207481086L240,180.68454083138423L248,176.78211277504877L256,171.06921756573516L264,164.47530269948692L272,156.14955786839107L280,150.91332522920763L288,144.75467220981955L296,141.03907113607232L304,137.95258232493174L312,134.9092389756313L320,132.9757784755165L328,132.23002734262752L336,131.82663264162798L344,131.31360482349837L352,130.67078887015745L360,129.97957350487138L368,129.326483134464L376,128.77478154244815L384,128.36090927491972L392,128.09959554769196" style="fill: none; stroke: #4c78a8; stroke-width: 2;"></path></g></g><path class="foreground" d="" style="display: none; fill: none;"></path></g></g><g class="mark-group role-legend"><g transform="translate(420,0)"><path class="background" d="M0,0h46v105h-46Z" style="pointer-events: none; fill: none;"></path><g><g class="mark-group role-legend-entry"><g transform="translate(0,16)"><path class="background" d="M0,0h0v0h0Z" style="pointer-events: none; fill: none;"></path><g><g class="mark-group role-scope"><g transform="translate(0,0)"><path class="background" d="M0,0h36.3857421875v11h-36.3857421875Z" style="pointer-events: none; fill: none; opacity: 1;"></path><g><g class="mark-symbol role-legend-symbol" style="pointer-events: none;"><path transform="translate(6,6)" d="M-5,0L5,0" style="fill: none; stroke: #4c78a8; stroke-width: 1.5; opacity: 1;"></path></g><g class="mark-text role-legend-label" style="pointer-events: none;"><text text-anchor="start" transform="translate(16,9)" style="font-family: sans-serif; font-size: 10px; fill: #000; opacity: 1;">Fri</text></g></g><path class="foreground" d="" style="pointer-events: none; display: none; fill: none;"></path></g><g transform="translate(0,13)"><path class="background" d="M0,0h36.3857421875v11h-36.3857421875Z" style="pointer-events: none; fill: none; opacity: 1;"></path><g><g class="mark-symbol role-legend-symbol" style="pointer-events: none;"><path transform="translate(6,6)" d="M-5,0L5,0" style="fill: none; stroke: #f58518; stroke-width: 1.5; opacity: 1;"></path></g><g class="mark-text role-legend-label" style="pointer-events: none;"><text text-anchor="start" transform="translate(16,9)" style="font-family: sans-serif; font-size: 10px; fill: #000; opacity: 1;">Mon</text></g></g><path class="foreground" d="" style="pointer-events: none; display: none; fill: none;"></path></g><g transform="translate(0,26)"><path class="background" d="M0,0h36.3857421875v11h-36.3857421875Z" style="pointer-events: none; fill: none; opacity: 1;"></path><g><g class="mark-symbol role-legend-symbol" style="pointer-events: none;"><path transform="translate(6,6)" d="M-5,0L5,0" style="fill: none; stroke: #e45756; stroke-width: 1.5; opacity: 1;"></path></g><g class="mark-text role-legend-label" style="pointer-events: none;"><text text-anchor="start" transform="translate(16,9)" style="font-family: sans-serif; font-size: 10px; fill: #000; opacity: 1;">Sat</text></g></g><path class="foreground" d="" style="pointer-events: none; display: none; fill: none;"></path></g><g transform="translate(0,39)"><path class="background" d="M0,0h36.3857421875v11h-36.3857421875Z" style="pointer-events: none; fill: none; opacity: 1;"></path><g><g class="mark-symbol role-legend-symbol" style="pointer-events: none;"><path transform="translate(6,6)" d="M-5,0L5,0" style="fill: none; stroke: #72b7b2; stroke-width: 1.5; opacity: 1;"></path></g><g class="mark-text role-legend-label" style="pointer-events: none;"><text text-anchor="start" transform="translate(16,9)" style="font-family: sans-serif; font-size: 10px; fill: #000; opacity: 1;">Sun</text></g></g><path class="foreground" d="" style="pointer-events: none; display: none; fill: none;"></path></g><g transform="translate(0,52)"><path class="background" d="M0,0h36.3857421875v11h-36.3857421875Z" style="pointer-events: none; fill: none; opacity: 1;"></path><g><g class="mark-symbol role-legend-symbol" style="pointer-events: none;"><path transform="translate(6,6)" d="M-5,0L5,0" style="fill: none; stroke: #54a24b; stroke-width: 1.5; opacity: 1;"></path></g><g class="mark-text role-legend-label" style="pointer-events: none;"><text text-anchor="start" transform="translate(16,9)" style="font-family: sans-serif; font-size: 10px; fill: #000; opacity: 1;">Thu</text></g></g><path class="foreground" d="" style="pointer-events: none; display: none; fill: none;"></path></g><g transform="translate(0,65)"><path class="background" d="M0,0h36.3857421875v11h-36.3857421875Z" style="pointer-events: none; fill: none; opacity: 1;"></path><g><g class="mark-symbol role-legend-symbol" style="pointer-events: none;"><path transform="translate(6,6)" d="M-5,0L5,0" style="fill: none; stroke: #eeca3b; stroke-width: 1.5; opacity: 1;"></path></g><g class="mark-text role-legend-label" style="pointer-events: none;"><text text-anchor="start" transform="translate(16,9)" style="font-family: sans-serif; font-size: 10px; fill: #000; opacity: 1;">Tue</text></g></g><path class="foreground" d="" style="pointer-events: none; display: none; fill: none;"></path></g><g transform="translate(0,78)"><path class="background" d="M0,0h36.3857421875v11h-36.3857421875Z" style="pointer-events: none; fill: none; opacity: 1;"></path><g><g class="mark-symbol role-legend-symbol" style="pointer-events: none;"><path transform="translate(6,6)" d="M-5,0L5,0" style="fill: none; stroke: #b279a2; stroke-width: 1.5; opacity: 1;"></path></g><g class="mark-text role-legend-label" style="pointer-events: none;"><text text-anchor="start" transform="translate(16,9)" style="font-family: sans-serif; font-size: 10px; fill: #000; opacity: 1;">Wed</text></g></g><path class="foreground" d="" style="pointer-events: none; display: none; fill: none;"></path></g></g></g><path class="foreground" d="" style="pointer-events: none; display: none; fill: none;"></path></g></g><g class="mark-text role-legend-title" style="pointer-events: none;"><text text-anchor="start" transform="translate(0,9)" style="font-family: sans-serif; font-size: 11px; font-weight: bold; fill: #000; opacity: 1;">weekday</text></g></g><path class="foreground" d="" style="pointer-events: none; display: none; fill: none;"></path></g></g></g><path class="foreground" d="" style="display: none; fill: none;"></path></g></g></g></svg>